<svg xmlns="http://www.w3.org/2000/svg" xmlns:xlink="http://www.w3.org/1999/xlink" width="25.211" height="24.238" viewBox="0 0 25.211 24.238">
  <defs>
    <linearGradient id="linear-gradient" x1="0.5" x2="0.5" y2="1" gradientUnits="objectBoundingBox">
      <stop offset="0" stop-color="#504595"/>
      <stop offset="1" stop-color="#c21d4d"/>
    </linearGradient>
  </defs>
  <path id="ic_phone_in_talk_24px" d="M26.811,19.832a16.5,16.5,0,0,1-5-.768,1.471,1.471,0,0,0-1.429.323L17.3,22.35a20.685,20.685,0,0,1-9.23-8.874L11.152,10.5a1.259,1.259,0,0,0,.35-1.347,14.76,14.76,0,0,1-.8-4.807A1.378,1.378,0,0,0,9.3,3H4.4A1.378,1.378,0,0,0,3,4.347C3,16.991,13.659,27.238,26.811,27.238a1.378,1.378,0,0,0,1.4-1.347V21.179A1.378,1.378,0,0,0,26.811,19.832Zm-1.4-4.713h2.8A12.371,12.371,0,0,0,15.606,3V5.693A9.614,9.614,0,0,1,25.41,15.119Zm-5.6,0h2.8a6.874,6.874,0,0,0-7-6.733v2.693A4.118,4.118,0,0,1,19.808,15.119Z" transform="translate(-3 -3)" fill="url(#linear-gradient)"/>
</svg>
