<svg xmlns="http://www.w3.org/2000/svg" xmlns:xlink="http://www.w3.org/1999/xlink" width="24.996" height="25.649" viewBox="0 0 24.996 25.649">
  <defs>
    <linearGradient id="linear-gradient" x1="0.5" x2="0.5" y2="1" gradientUnits="objectBoundingBox">
      <stop offset="0" stop-color="#504595"/>
      <stop offset="1" stop-color="#c21d4d"/>
    </linearGradient>
  </defs>
  <path id="ic_local_offer_24px" d="M26.259,14.286,15.011,2.744A2.452,2.452,0,0,0,13.248,2H4.5A2.54,2.54,0,0,0,2,4.565v8.977a2.593,2.593,0,0,0,.737,1.821L13.986,26.9a2.452,2.452,0,0,0,1.762.744,2.414,2.414,0,0,0,1.762-.757l8.749-8.977A2.54,2.54,0,0,0,27,16.107,2.625,2.625,0,0,0,26.259,14.286ZM6.374,8.412A1.924,1.924,0,1,1,8.249,6.488,1.9,1.9,0,0,1,6.374,8.412Z" transform="translate(-2 -2)" fill="url(#linear-gradient)"/>
</svg>
