<svg xmlns="http://www.w3.org/2000/svg" xmlns:xlink="http://www.w3.org/1999/xlink" width="43.782" height="41.649" viewBox="0 0 43.782 41.649">
  <defs>
    <linearGradient id="linear-gradient" x1="0.5" x2="0.5" y2="1" gradientUnits="objectBoundingBox">
      <stop offset="0" stop-color="#504595"/>
      <stop offset="1" stop-color="#c21d4d"/>
    </linearGradient>
    <filter id="ic_business_center_24px" x="0" y="0" width="43.782" height="41.649" filterUnits="userSpaceOnUse">
      <feOffset dy="3" input="SourceAlpha"/>
      <feGaussianBlur stdDeviation="3" result="blur"/>
      <feFlood flood-opacity="0.161"/>
      <feComposite operator="in" in2="blur"/>
      <feComposite in="SourceGraphic"/>
    </filter>
  </defs>
  <g transform="matrix(1, 0, 0, 1, 0, 0)" filter="url(#ic_business_center_24px)">
    <path id="ic_business_center_24px-2" data-name="ic_business_center_24px" d="M12.313,20.08V18.766H3.3l-.013,5.255a2.594,2.594,0,0,0,2.578,2.628H23.914a2.594,2.594,0,0,0,2.578-2.628V18.766H17.469V20.08ZM25.2,8.255H20.034V5.628L17.456,3H12.3L9.722,5.628V8.255H4.578A2.611,2.611,0,0,0,2,10.883v3.941a2.594,2.594,0,0,0,2.578,2.628h7.734V14.824h5.156v2.628H25.2a2.611,2.611,0,0,0,2.578-2.628V10.883A2.611,2.611,0,0,0,25.2,8.255Zm-7.734,0H12.313V5.628h5.156Z" transform="translate(7 3)" fill="url(#linear-gradient)"/>
  </g>
</svg>
