<svg xmlns="http://www.w3.org/2000/svg" xmlns:xlink="http://www.w3.org/1999/xlink" width="87" height="85" viewBox="0 0 87 85">
  <defs>
    <clipPath id="clip-path">
      <rect width="87" height="85" fill="none"/>
    </clipPath>
    <filter id="Ellipse_6" x="0" y="0" width="87" height="86" filterUnits="userSpaceOnUse">
      <feOffset dy="3" input="SourceAlpha"/>
      <feGaussianBlur stdDeviation="3" result="blur"/>
      <feFlood flood-opacity="0.161"/>
      <feComposite operator="in" in2="blur"/>
      <feComposite in="SourceGraphic"/>
    </filter>
    <linearGradient id="linear-gradient" x1="0.5" x2="0.5" y2="1" gradientUnits="objectBoundingBox">
      <stop offset="0" stop-color="#504595"/>
      <stop offset="1" stop-color="#c21d4d"/>
    </linearGradient>
  </defs>
  <g id="Repeat_Grid_3" data-name="Repeat Grid 3" clip-path="url(#clip-path)">
    <g transform="translate(-177 -437)">
      <g transform="matrix(1, 0, 0, 1, 177, 437)" filter="url(#Ellipse_6)">
        <g id="Ellipse_6-2" data-name="Ellipse 6" transform="translate(9 6)" fill="#fff" stroke="rgba(54,65,91,0.26)" stroke-width="3">
          <ellipse cx="34.5" cy="34" rx="34.5" ry="34" stroke="none"/>
          <ellipse cx="34.5" cy="34" rx="33" ry="32.5" fill="none"/>
        </g>
      </g>
      <path id="ic_local_offer_24px" d="M26.259,14.286,15.011,2.744A2.452,2.452,0,0,0,13.248,2H4.5A2.54,2.54,0,0,0,2,4.565v8.977a2.593,2.593,0,0,0,.737,1.821L13.986,26.9a2.452,2.452,0,0,0,1.762.744,2.414,2.414,0,0,0,1.762-.757l8.749-8.977A2.54,2.54,0,0,0,27,16.107,2.625,2.625,0,0,0,26.259,14.286ZM6.374,8.412A1.924,1.924,0,1,1,8.249,6.488,1.9,1.9,0,0,1,6.374,8.412Z" transform="translate(206 464.59)" fill="url(#linear-gradient)"/>
      <text id="design" transform="translate(198 536)" fill="rgba(54,65,91,0.5)" font-size="14" font-family="Bahnschrift"><tspan x="0" y="0">design</tspan></text>
    </g>
  </g>
</svg>
