<svg xmlns="http://www.w3.org/2000/svg" xmlns:xlink="http://www.w3.org/1999/xlink" width="87" height="86" viewBox="0 0 87 86">
  <defs>
    <clipPath id="clip-path">
      <rect width="87" height="86" fill="none"/>
    </clipPath>
    <linearGradient id="linear-gradient" x1="0.5" x2="0.5" y2="1" gradientUnits="objectBoundingBox">
      <stop offset="0" stop-color="#504595"/>
      <stop offset="1" stop-color="#c21d4d"/>
    </linearGradient>
    <filter id="Path_16" x="0" y="0" width="87" height="86" filterUnits="userSpaceOnUse">
      <feOffset dy="3" input="SourceAlpha"/>
      <feGaussianBlur stdDeviation="3" result="blur"/>
      <feFlood flood-opacity="0.161"/>
      <feComposite operator="in" in2="blur"/>
      <feComposite in="SourceGraphic"/>
    </filter>
    <clipPath id="clip-path-2">
      <rect width="27.115" height="20.658" fill="none"/>
    </clipPath>
  </defs>
  <g id="Repeat_Grid_20" data-name="Repeat Grid 20" clip-path="url(#clip-path)">
    <g transform="translate(-67 -527)">
      <g transform="matrix(1, 0, 0, 1, 67, 527)" filter="url(#Path_16)">
        <g id="Path_16-2" data-name="Path 16" transform="translate(9 6)" fill="url(#linear-gradient)">
          <path d="M 34.5 66 C 30.1080436706543 66 25.84878921508789 65.15284729003906 21.84053421020508 63.4820671081543 C 17.96990013122559 61.86864471435547 14.49375534057617 59.55895614624023 11.5086669921875 56.61713409423828 C 8.52561092376709 53.67729949951172 6.184055328369141 50.25508880615234 4.549066543579102 46.4455451965332 C 2.857633352279663 42.50450134277344 2 38.31721115112305 2 34 C 2 29.68278884887695 2.857633352279663 25.4955005645752 4.549066543579102 21.5544548034668 C 6.184055328369141 17.74491119384766 8.52561092376709 14.32269954681396 11.5086669921875 11.38286685943604 C 14.49375534057617 8.441044807434082 17.96990013122559 6.131355762481689 21.84053421020508 4.517933368682861 C 25.84878921508789 2.847155570983887 30.1080436706543 2 34.5 2 C 38.8919563293457 2 43.15121078491211 2.847155570983887 47.15946578979492 4.517933368682861 C 51.03010177612305 6.131355762481689 54.50624465942383 8.441044807434082 57.4913330078125 11.38286685943604 C 60.47438812255859 14.32269954681396 62.81594467163086 17.74491119384766 64.45093536376953 21.5544548034668 C 66.14236450195313 25.4955005645752 67 29.68278884887695 67 34 C 67 38.31721115112305 66.14236450195313 42.50450134277344 64.45093536376953 46.4455451965332 C 62.81594467163086 50.25508880615234 60.47438812255859 53.67729949951172 57.4913330078125 56.61713409423828 C 54.50624465942383 59.55895614624023 51.03010177612305 61.86864471435547 47.15946578979492 63.4820671081543 C 43.15121078491211 65.15284729003906 38.8919563293457 66 34.5 66 Z" stroke="none"/>
          <path d="M 34.5 4 C 30.37356185913086 4 26.37319946289063 4.795364379882813 22.61003875732422 6.363975524902344 C 18.97697448730469 7.878360748291016 15.71426391601563 10.04622650146484 12.91252517700195 12.8073616027832 C 10.11482620239258 15.56452560424805 7.919300079345703 18.77285003662109 6.386951446533203 22.3432502746582 C 4.803085327148438 26.03364944458008 4 29.95553588867188 4 34 C 4 38.04446411132813 4.803085327148438 41.96635055541992 6.386951446533203 45.6567497253418 C 7.919300079345703 49.22714996337891 10.11482620239258 52.43547439575195 12.91252517700195 55.1926383972168 C 15.71426391601563 57.95377349853516 18.97697448730469 60.12163543701172 22.61003875732422 61.63602447509766 C 26.37319946289063 63.20463562011719 30.37356185913086 64 34.5 64 C 38.62643814086914 64 42.62680053710938 63.20463562011719 46.38996124267578 61.63602447509766 C 50.02302551269531 60.12163543701172 53.28573608398438 57.95377349853516 56.08747482299805 55.1926383972168 C 58.88517379760742 52.43547439575195 61.0806999206543 49.22714996337891 62.6130485534668 45.6567497253418 C 64.19691467285156 41.96635055541992 65 38.04446411132813 65 34 C 65 29.95553588867188 64.19691467285156 26.03364944458008 62.6130485534668 22.3432502746582 C 61.0806999206543 18.77285003662109 58.88517379760742 15.56452560424805 56.08747482299805 12.8073616027832 C 53.28573608398438 10.04622650146484 50.02302551269531 7.878360748291016 46.38996124267578 6.363975524902344 C 42.62680053710938 4.795364379882813 38.62643814086914 4 34.5 4 M 34.5 0 C 53.55382537841797 0 69 15.22232437133789 69 34 C 69 52.77767562866211 53.55382537841797 68 34.5 68 C 15.44617462158203 68 0 52.77767562866211 0 34 C 0 15.22232437133789 15.44617462158203 0 34.5 0 Z" stroke="none" fill="#fff"/>
        </g>
      </g>
      <g id="Repeat_Grid_8" data-name="Repeat Grid 8" transform="translate(96.942 556.671)" clip-path="url(#clip-path-2)">
        <g transform="translate(-97 -561.922)">
          <path id="ic_mode_edit_24px" d="M3,10.4v1.947H5.8L14.054,6.6l-2.8-1.947ZM16.219,5.1a.416.416,0,0,0,0-.732L14.472,3.149a.988.988,0,0,0-1.052,0l-1.366.95,2.8,1.947,1.366-.95Z" transform="matrix(0.999, -0.052, 0.052, 0.999, 108.055, 561.788)" fill="#fff"/>
          <path id="ic_laptop_windows_24px" d="M20.83,20.056V18.919A2.183,2.183,0,0,0,22.9,16.645l.01-11.371A2.191,2.191,0,0,0,20.83,3H4.166A2.191,2.191,0,0,0,2.083,5.274V16.645a2.191,2.191,0,0,0,2.083,2.274v1.137H0V22.33H25V20.056ZM4.166,5.274H20.83V16.645H4.166Z" transform="translate(97 559)" fill="#fff"/>
        </g>
      </g>
    </g>
  </g>
</svg>
