<svg xmlns="http://www.w3.org/2000/svg" xmlns:xlink="http://www.w3.org/1999/xlink" width="87" height="86" viewBox="0 0 87 86">
  <defs>
    <clipPath id="clip-path">
      <rect width="87" height="86" fill="none"/>
    </clipPath>
    <filter id="Path_14" x="0" y="0" width="87" height="86" filterUnits="userSpaceOnUse">
      <feOffset dy="3" input="SourceAlpha"/>
      <feGaussianBlur stdDeviation="3" result="blur"/>
      <feFlood flood-opacity="0.161"/>
      <feComposite operator="in" in2="blur"/>
      <feComposite in="SourceGraphic"/>
    </filter>
    <linearGradient id="linear-gradient" x1="0.5" x2="0.5" y2="1" gradientUnits="objectBoundingBox">
      <stop offset="0" stop-color="#504595"/>
      <stop offset="1" stop-color="#c21d4d"/>
    </linearGradient>
  </defs>
  <g id="Repeat_Grid_5" data-name="Repeat Grid 5" clip-path="url(#clip-path)">
    <g transform="translate(-15 -437)">
      <g transform="matrix(1, 0, 0, 1, 15, 437)" filter="url(#Path_14)">
        <g id="Path_14-2" data-name="Path 14" transform="translate(9 6)" fill="#fff">
          <path d="M34.5,0C53.554,0,69,15.222,69,34S53.554,68,34.5,68,0,52.778,0,34,15.446,0,34.5,0Z" stroke="none"/>
          <path d="M 34.5 3 C 30.24081039428711 3 26.11100006103516 3.821258544921875 22.22528076171875 5.440952301025391 C 18.47343444824219 7.004859924316406 15.10401153564453 9.243637084960938 12.21060180664063 12.09511947631836 C 9.320213317871094 14.94361114501953 7.051681518554688 18.25888061523438 5.467998504638672 21.94884872436523 C 3.830352783203125 25.76456451416016 3 29.81916427612305 3 34 C 3 38.18083572387695 3.830352783203125 42.23543548583984 5.467998504638672 46.05115509033203 C 7.051681518554688 49.74111938476563 9.320213317871094 53.05638885498047 12.21060180664063 55.90488433837891 C 15.10401153564453 58.75636291503906 18.47343444824219 60.99514007568359 22.22528076171875 62.55904769897461 C 26.11100006103516 64.17874145507813 30.24081039428711 65 34.5 65 C 38.75918579101563 65 42.88899993896484 64.17874145507813 46.77471923828125 62.55904769897461 C 50.52656555175781 60.99514007568359 53.89598846435547 58.75636291503906 56.78939819335938 55.90488433837891 C 59.67978668212891 53.05638885498047 61.94831848144531 49.74111938476563 63.53200149536133 46.05115509033203 C 65.16964721679688 42.23543548583984 66 38.18083572387695 66 34 C 66 29.81916427612305 65.16964721679688 25.76456451416016 63.53200149536133 21.94884872436523 C 61.94831848144531 18.25888061523438 59.67978668212891 14.94361114501953 56.78939819335938 12.09511947631836 C 53.89598846435547 9.243637084960938 50.52656555175781 7.004859924316406 46.77471923828125 5.440952301025391 C 42.88899993896484 3.821258544921875 38.75918579101563 3 34.5 3 M 34.5 0 C 53.55382537841797 0 69 15.22231674194336 69 34 C 69 52.77768325805664 53.55382537841797 68 34.5 68 C 15.44617462158203 68 0 52.77768325805664 0 34 C 0 15.22231674194336 15.44617462158203 0 34.5 0 Z" stroke="none" fill="rgba(54,65,91,0.26)"/>
        </g>
      </g>
      <text id="Programming" transform="translate(16 536)" fill="rgba(54,65,91,0.5)" font-size="14" font-family="Bahnschrift"><tspan x="0" y="0">Programming</tspan></text>
      <g id="Group_1" data-name="Group 1" transform="translate(45.046 465.414)">
        <path id="Path_19" data-name="Path 19" d="M13.325,3.05,8.667,25.166l1.932.659L15.257,3.709Z" transform="translate(1.743)" fill="url(#linear-gradient)"/>
        <path id="Path_20" data-name="Path 20" d="M7.612,23.235l1.359-2v-.026L3.877,14.592l4.79-7.06L7.209,5.639,1.05,14.716Z" fill="url(#linear-gradient)"/>
        <path id="Path_21" data-name="Path 21" d="M16.388,23.235l-1.359-2v-.026l5.094-6.613-4.79-7.06,1.458-1.893,6.159,9.077Z" transform="translate(3.504)" fill="url(#linear-gradient)"/>
      </g>
    </g>
  </g>
</svg>
